<svg width="368" height="24" viewBox="0 0 368 24" fill="none" xmlns="http://www.w3.org/2000/svg">
<path d="M120 0L122.694 8.2918H131.413L124.359 13.4164L127.053 21.7082L120 16.5836L112.947 21.7082L115.641 13.4164L108.587 8.2918H117.306L120 0Z" fill="#F6BF0C"/>
<path d="M152 0L154.694 8.2918H163.413L156.359 13.4164L159.053 21.7082L152 16.5836L144.947 21.7082L147.641 13.4164L140.587 8.2918H149.306L152 0Z" fill="#F6BF0C"/>
<path d="M184 0L186.694 8.2918H195.413L188.359 13.4164L191.053 21.7082L184 16.5836L176.947 21.7082L179.641 13.4164L172.587 8.2918H181.306L184 0Z" fill="#F6BF0C"/>
<path d="M216 0L218.694 8.2918H227.413L220.359 13.4164L223.053 21.7082L216 16.5836L208.947 21.7082L211.641 13.4164L204.587 8.2918H213.306L216 0Z" fill="#F6BF0C"/>
<path d="M248 0L250.694 8.2918H259.413L252.359 13.4164L255.053 21.7082L248 16.5836L240.947 21.7082L243.641 13.4164L236.587 8.2918H245.306L248 0Z" fill="#002A4D" fill-opacity="0.2"/>
</svg>
